<?xml version="1.0" standalone="no"?>
<!DOCTYPE svg PUBLIC "-//W3C//DTD SVG 20010904//EN"
 "http://www.w3.org/TR/2001/REC-SVG-20010904/DTD/svg10.dtd">
<svg version="1.0" xmlns="http://www.w3.org/2000/svg"
 width="260.000000pt" height="260.000000pt" viewBox="0 0 260.000000 260.000000"
 preserveAspectRatio="xMidYMid meet">
<metadata>
Created by potrace 1.11, written by Peter Selinger 2001-2013
</metadata>
<g transform="translate(0.000000,260.000000) scale(0.100000,-0.100000)"
fill="#000000" stroke="none">
<path d="M2225 1779 c-122 -24 -188 -87 -189 -182 -1 -48 -3 -52 -26 -53 -40
-1 -70 -14 -70 -31 0 -8 14 -31 30 -50 17 -18 30 -41 30 -51 0 -9 -23 -91 -50
-182 -42 -140 -55 -169 -80 -190 -63 -52 -43 -60 160 -60 132 0 160 3 171 16
10 12 10 19 1 32 -24 33 -25 45 -9 96 8 28 34 113 58 189 l42 137 36 0 c42 0
76 20 84 49 7 30 -17 44 -79 46 -62 2 -73 9 -75 50 -3 48 25 101 59 113 29 10
31 9 23 -11 -13 -35 6 -85 39 -102 35 -18 106 -19 140 -2 81 41 52 147 -49
178 -45 14 -193 19 -246 8z"/>
<path d="M343 1545 c-177 -48 -295 -181 -299 -336 -2 -83 19 -133 72 -177 47
-39 86 -51 185 -59 221 -16 405 118 437 319 17 107 -22 189 -112 233 -66 32
-202 42 -283 20z m130 -105 c8 -31 -3 -88 -39 -199 -42 -127 -67 -171 -99
-171 -33 0 -36 34 -9 138 41 159 87 252 124 252 9 0 20 -9 23 -20z"/>
<path d="M935 1545 c-95 -22 -113 -44 -76 -91 18 -23 18 -28 6 -67 -8 -23 -32
-103 -55 -177 -35 -113 -47 -140 -76 -169 -57 -54 -40 -61 150 -61 124 0 167
3 181 14 19 14 19 15 2 33 -24 28 -22 52 22 192 41 133 64 171 105 171 36 0
34 -21 -15 -154 -50 -134 -50 -184 -1 -227 54 -48 176 -51 244 -6 38 26 68 79
61 108 -5 18 -7 19 -24 3 -19 -17 -41 -12 -34 9 2 7 16 55 31 107 29 100 60
154 93 163 11 3 26 -1 32 -9 9 -12 3 -39 -31 -130 -62 -167 -56 -225 25 -264
77 -37 184 -20 241 39 36 37 47 91 19 91 -8 0 -15 -4 -15 -10 0 -5 -7 -10 -15
-10 -21 0 -19 13 20 143 46 152 51 193 28 236 -27 51 -64 74 -124 77 -87 4
-148 -24 -200 -92 l-26 -33 -11 37 c-21 69 -113 106 -205 82 -23 -7 -63 -29
-88 -50 l-46 -38 -12 35 c-22 59 -88 75 -206 48z"/>
</g>
</svg>
